<svg xmlns="http://www.w3.org/2000/svg" width="13.75" height="13.75" viewBox="0 0 13.75 13.75">
  <path id="Combined_Shape" data-name="Combined Shape" d="M2.014,11.736a6.875,6.875,0,1,1,9.722-9.722,6.875,6.875,0,1,1-9.722,9.722ZM1.25,6.875A5.625,5.625,0,1,0,6.875,1.25,5.631,5.631,0,0,0,1.25,6.875ZM8.308,9.192,6.875,7.759,5.442,9.192a.625.625,0,0,1-.884-.884L5.991,6.875,4.558,5.442a.625.625,0,0,1,.884-.884L6.875,5.991,8.308,4.558a.625.625,0,0,1,.884.884L7.759,6.875,9.192,8.308a.625.625,0,1,1-.884.884Z" transform="translate(0 0)"/>
</svg>
