<svg xmlns="http://www.w3.org/2000/svg" width="18" height="22" viewBox="0 0 18 22">
  <path id="Combined_Shape" data-name="Combined Shape" d="M3,22a3,3,0,0,1-3-3V3A3,3,0,0,1,3,0h8a.991.991,0,0,1,.573.181l0,0,.008.006a.955.955,0,0,1,.122.1l6,6a1.025,1.025,0,0,1,.1.122l.006.01,0,0A1,1,0,0,1,18,6.975V19a3,3,0,0,1-3,3ZM2,3V19a1,1,0,0,0,1,1H15a1,1,0,0,0,1-1V8H11a1,1,0,0,1-1-1V2H3A1,1,0,0,0,2,3ZM12,6h2.587L12,3.414ZM5,17a1,1,0,1,1,0-2h8a1,1,0,1,1,0,2Zm0-4a1,1,0,1,1,0-2h8a1,1,0,1,1,0,2ZM5,9A1,1,0,1,1,5,7H7A1,1,0,0,1,7,9Z" fill="#51a0fb"/>
</svg>
