<svg xmlns="http://www.w3.org/2000/svg" width="12.5" height="13.75" viewBox="0 0 12.5 13.75">
  <path id="Combined_Shape" data-name="Combined Shape" d="M3.125,13.75A1.875,1.875,0,0,1,1.25,11.875V3.75H.625a.625.625,0,0,1,0-1.25h2.5V1.875A1.875,1.875,0,0,1,5,0H7.5A1.875,1.875,0,0,1,9.375,1.875V2.5h2.5a.625.625,0,0,1,0,1.25H11.25v8.125A1.875,1.875,0,0,1,9.375,13.75ZM2.5,11.875a.625.625,0,0,0,.625.625h6.25A.625.625,0,0,0,10,11.875V3.75H2.5Zm1.875-10V2.5h3.75V1.875A.625.625,0,0,0,7.5,1.25H5A.625.625,0,0,0,4.375,1.875ZM6.875,10V6.25a.625.625,0,1,1,1.25,0V10a.625.625,0,1,1-1.25,0Zm-2.5,0V6.25a.625.625,0,0,1,1.25,0V10a.625.625,0,1,1-1.25,0Z"/>
</svg>
