<svg xmlns="http://www.w3.org/2000/svg" width="35.494" height="38.436" viewBox="0 0 35.494 38.436">
  <g id="img-dashboard-allRequest" transform="translate(-22.5 -52.458)">
    <path id="Triangle_2" data-name="Triangle 2" d="M10.857,2.366a2,2,0,0,1,3.285,0l8.676,12.494A2,2,0,0,1,21.176,18H3.824a2,2,0,0,1-1.643-3.141Z" transform="translate(42 52.176) rotate(90)" fill="none" stroke="#41dcc7" stroke-miterlimit="10" stroke-width="3"/>
    <path id="Triangle_2_Copy" data-name="Triangle 2 Copy" d="M-10.857,2.366a2,2,0,0,0-3.285,0l-8.676,12.494A2,2,0,0,0-21.176,18H-3.824a2,2,0,0,0,1.643-3.141Z" transform="translate(38.494 66.176) rotate(-90)" fill="none" stroke="#fe95b3" stroke-miterlimit="10" stroke-width="3"/>
  </g>
</svg>
