<svg xmlns="http://www.w3.org/2000/svg" width="81.889" height="58.45" viewBox="0 0 81.889 58.45">
  <g id="Group_613" data-name="Group 613" transform="translate(-20 -1000)">
    <path id="Path_639" data-name="Path 639" d="M81.843,95.463Q81.8,93,81.455,89.231a56.652,56.652,0,0,0-.983-6.736A10.618,10.618,0,0,0,77.3,76.878a9.743,9.743,0,0,0-5.69-2.649q-10.145-1.141-30.662-1.141T10.282,74.229a9.637,9.637,0,0,0-5.667,2.649,10.678,10.678,0,0,0-3.153,5.617A50.506,50.506,0,0,0,.434,89.231Q.092,93,.046,95.463T0,102.313q0,4.384.046,6.85T.434,115.4a56.443,56.443,0,0,0,.983,6.736,10.61,10.61,0,0,0,3.176,5.616,9.747,9.747,0,0,0,5.69,2.649q10.145,1.142,30.662,1.142T71.607,130.4a9.639,9.639,0,0,0,5.667-2.649,10.679,10.679,0,0,0,3.153-5.616,50.539,50.539,0,0,0,1.029-6.736q.342-3.766.388-6.233t.046-6.85Q81.889,97.929,81.843,95.463Z" transform="translate(20 926.912)" fill="#7cf9c5"/>
    <path id="Path_641" data-name="Path 641" d="M18,994.813a3.82,3.82,0,0,0,5.694,3.4L44.824,985.88a3.87,3.87,0,0,0,0-6.7L23.694,966.863A3.812,3.812,0,0,0,18,970.248Z" transform="translate(28.439 46.506)" fill="#fff"/>
  </g>
</svg>
