<svg xmlns="http://www.w3.org/2000/svg" width="16.696" height="15.128" viewBox="0 0 16.696 15.128">
  <g id="img-heart" transform="translate(0 -23.68)">
    <path id="Path_37" data-name="Path 37" d="M1.462,48.7c2.478-2.517,4.917-1.408,6.886.378,1.956-1.787,4.395-2.908,6.886-.378a5.05,5.05,0,0,1,0,7.108c-3.273,3-4.982,4.551-5.882,5.373a1.461,1.461,0,0,1-1.969,0c-.9-.809-2.621-2.374-5.921-5.373A5.05,5.05,0,0,1,1.462,48.7Z" transform="translate(0 -22.759)" fill="#e2574c"/>
    <path id="Path_38" data-name="Path 38" d="M252.111,49.149V61.642a1.553,1.553,0,0,0,1-.378c.9-.822,2.608-2.374,5.882-5.373a5.05,5.05,0,0,0,0-7.108C256.506,46.241,254.067,47.362,252.111,49.149Z" transform="translate(-243.763 -22.834)" fill="#d65348"/>
    <path id="Path_39" data-name="Path 39" d="M386.019,25.636a2.006,2.006,0,0,0,1.956-1.956,2.006,2.006,0,0,0,1.956,1.956,2.006,2.006,0,0,0-1.956,1.956A2.006,2.006,0,0,0,386.019,25.636Z" transform="translate(-373.237)" fill="#efc75e"/>
    <path id="Path_40" data-name="Path 40" d="M55.188,105.5a3.056,3.056,0,0,1,3.052-3.052.339.339,0,0,1,0,.678,2.36,2.36,0,0,0-2.36,2.36.337.337,0,0,1-.339.339A.329.329,0,0,1,55.188,105.5Z" transform="translate(-53.361 -76.161)" fill="#e67067"/>
  </g>
</svg>
