<svg xmlns="http://www.w3.org/2000/svg" xmlns:xlink="http://www.w3.org/1999/xlink" width="42.61" height="33" viewBox="0 0 42.61 33">
  <defs>
    <clipPath id="clip-path">
      <rect width="42.61" height="33" fill="none"/>
    </clipPath>
  </defs>
  <g id="logo" clip-path="url(#clip-path)">
    <g id="Group_2" data-name="Group 2">
      <path id="Path_1" data-name="Path 1" d="M19.2,29.6v6.754l7.253,3.218V32.864Z" transform="translate(-10.497 -16.182)" fill="#00c2ec"/>
      <path id="Path_2" data-name="Path 2" d="M6.709,9.746l9.247,4.08V7.117L0,0V25.929H.136L15.956,33V26.246L6.709,22.121Z" fill="#00c2ec"/>
    </g>
    <g id="Group_3" data-name="Group 3" transform="translate(15.956)">
      <path id="Path_3" data-name="Path 3" d="M44.447,35.6v2.81L35.2,42.538h0v6.754h0L51.02,42.22h.136V29.8L39.733,37.642Z" transform="translate(-35.2 -16.292)" fill="#50e0ff"/>
      <path id="Path_4" data-name="Path 4" d="M51.156,9.7V0L35.2,7.117h0v6.709h0L44.447,9.7v2.856L35.2,16.681V23.39L51.156,12.42l10.7-7.389Z" transform="translate(-35.2)" fill="#50e0ff"/>
    </g>
  </g>
</svg>
